<?xml version="1.0" encoding="UTF-8" standalone="no"?>
<!-- Created with Inkscape (http://www.inkscape.org/) -->

<svg
   width="210mm"
   height="297mm"
   viewBox="0 0 210 297"
   version="1.1"
   id="svg5"
   inkscape:version="1.2.2 (732a01da63, 2022-12-09)"
   sodipodi:docname="świnka.svg"
   xmlns:inkscape="http://www.inkscape.org/namespaces/inkscape"
   xmlns:sodipodi="http://sodipodi.sourceforge.net/DTD/sodipodi-0.dtd"
   xmlns="http://www.w3.org/2000/svg"
   xmlns:svg="http://www.w3.org/2000/svg">
  <sodipodi:namedview
     id="namedview7"
     pagecolor="#ffffff"
     bordercolor="#000000"
     borderopacity="0.25"
     inkscape:showpageshadow="2"
     inkscape:pageopacity="0.0"
     inkscape:pagecheckerboard="0"
     inkscape:deskcolor="#d1d1d1"
     inkscape:document-units="mm"
     showgrid="false"
     inkscape:zoom="1.0129245"
     inkscape:cx="284.32524"
     inkscape:cy="545.45032"
     inkscape:window-width="1920"
     inkscape:window-height="991"
     inkscape:window-x="-9"
     inkscape:window-y="-9"
     inkscape:window-maximized="1"
     inkscape:current-layer="layer1" />
  <defs
     id="defs2" />
  <g
     inkscape:label="Warstwa 1"
     inkscape:groupmode="layer"
     id="layer1">
    <path
       id="path348"
       style="fill:#004c56;fill-opacity:1;stroke:#ff3b00;stroke-width:0"
       d="M 155.44736 121.72177 C 155.07346 122.25084 154.69927 122.79046 154.32546 123.31444 C 153.32261 124.72018 152.31996 126.10728 151.31583 127.47646 C 150.3117 128.84564 149.30573 130.19669 148.29741 131.52944 C 147.28909 132.86219 146.27838 134.17694 145.26297 135.47338 C 144.24756 136.76983 143.22758 138.04803 142.20217 139.30829 C 141.17677 140.56855 140.14557 141.81047 139.10727 143.03468 C 138.06897 144.25889 137.02358 145.46531 135.96948 146.65358 C 135.44243 147.24772 134.91353 147.83729 134.38198 148.42247 C 133.85043 149.00764 133.31642 149.58824 132.78001 150.16448 C 132.2436 150.74071 131.70468 151.31283 131.16305 151.88014 C 130.62143 152.44744 130.07677 153.01001 129.52956 153.5684 C 128.98235 154.1268 128.43218 154.68082 127.87902 155.23032 C 127.32586 155.77982 126.76986 156.32474 126.21038 156.86536 C 125.65091 157.40598 125.08826 157.94229 124.52212 158.47405 C 123.95597 159.0058 123.38636 159.53296 122.81318 160.05586 C 122.23999 160.57877 121.66311 161.09725 121.08253 161.61132 C 120.50195 162.12539 119.91749 162.63518 119.32915 163.14043 C 118.74081 163.64568 118.14847 164.14673 117.552 164.64318 C 116.95553 165.13963 116.355 165.6314 115.75004 166.11906 C 115.14508 166.60672 114.53606 167.09021 113.92225 167.5691 C 113.30843 168.04799 112.69009 168.52265 112.06706 168.99279 C 111.44404 169.46292 110.81606 169.92872 110.18346 170.39012 C 109.55085 170.85151 108.91346 171.30842 108.27091 171.76109 C 107.62837 172.21377 106.98073 172.66226 106.32788 173.10623 C 105.67503 173.5502 105.01684 173.98974 104.35332 174.42501 C 103.6898 174.86029 103.02075 175.29084 102.34621 175.71744 C 101.67166 176.14404 100.99196 176.56661 100.30602 176.98455 C 99.620083 177.40248 98.928392 177.81601 98.230697 178.2253 C 97.533001 178.63459 96.829012 179.03955 96.119198 179.44021 C 95.409383 179.84087 94.693305 180.23724 93.971008 180.62928 C 93.248712 181.02133 92.520237 181.40907 91.785095 181.79252 C 91.049953 182.17597 90.308258 182.55505 89.559908 182.92992 C 88.811558 183.30478 88.056335 183.67518 87.294413 184.04148 C 86.532492 184.40778 85.76395 184.76997 84.988094 185.12772 C 84.212238 185.48546 83.429554 185.83891 82.6394 186.18812 C 81.849247 186.53733 81.051596 186.88251 80.246781 187.2232 C 79.441967 187.56389 78.629559 187.90025 77.809721 188.23244 C 76.989883 188.56462 76.162409 188.89266 75.327185 189.21636 C 74.491961 189.54006 73.649114 189.85921 72.79814 190.17444 C 71.947167 190.48966 71.088123 190.80095 70.221037 191.10771 C 69.35395 191.41448 68.478919 191.71683 67.595357 192.01515 C 66.711795 192.31348 65.819953 192.60789 64.919552 192.89779 C 64.019151 193.18769 63.110189 193.47309 62.192586 193.75458 C 61.274984 194.03607 60.348595 194.31348 59.413428 194.58657 C 59.020125 194.70143 58.618741 194.81271 58.222286 194.92609 C 60.398686 197.00021 62.882732 199.1399 65.753609 201.32466 L 65.753609 211.6677 L 79.790995 212.40667 L 81.268424 203.54106 C 92.086964 208.10204 104.44091 208.32248 118.20881 205.01849 L 117.83932 213.51513 L 132.98516 213.8841 C 138.69705 193.69009 156.66235 172.38782 158.47405 152.19381 C 158.85062 143.0277 159.28053 131.38594 155.44736 121.72177 z " />
    <path
       id="path33691"
       style="fill:#175f93;fill-opacity:1;stroke:#ff3b00;stroke-width:0"
       d="M 101.83668 93.914681 C 89.545485 93.789748 76.048285 96.673449 62.059778 98.630672 C 53.966295 99.612291 50.148833 95.261176 46.913932 94.936324 C 44.870815 104.7584 48.843961 107.97669 50.60828 116.36189 C 41.035492 126.72662 40.947909 136.14272 41.003699 145.5446 C 37.186539 144.60224 33.369362 145.38105 29.552201 147.39204 L 29.921688 169.18657 C 33.615714 173.64443 37.309672 172.3314 41.003699 173.24989 C 45.086701 178.02373 48.691406 185.84309 58.222286 194.92609 C 58.618741 194.81271 59.020125 194.70143 59.413428 194.58657 C 60.348595 194.31348 61.274984 194.03607 62.192586 193.75458 C 63.110189 193.47309 64.019151 193.18769 64.919552 192.89779 C 65.819953 192.60789 66.711795 192.31348 67.595357 192.01515 C 68.478919 191.71683 69.35395 191.41448 70.221037 191.10771 C 71.088123 190.80095 71.947167 190.48966 72.79814 190.17444 C 73.649114 189.85921 74.491961 189.54006 75.327185 189.21636 C 76.162409 188.89266 76.989883 188.56462 77.809721 188.23244 C 78.629559 187.90025 79.441967 187.56389 80.246781 187.2232 C 81.051596 186.88251 81.849247 186.53733 82.6394 186.18812 C 83.429554 185.83891 84.212238 185.48546 84.988094 185.12772 C 85.76395 184.76997 86.532492 184.40778 87.294413 184.04148 C 88.056335 183.67518 88.811558 183.30478 89.559908 182.92992 C 90.308258 182.55505 91.049953 182.17597 91.785095 181.79252 C 92.520237 181.40907 93.248712 181.02133 93.971008 180.62928 C 94.693305 180.23724 95.409383 179.84087 96.119198 179.44021 C 96.829012 179.03955 97.533001 178.63459 98.230697 178.2253 C 98.928392 177.81601 99.620083 177.40248 100.30602 176.98455 C 100.99196 176.56661 101.67166 176.14404 102.34621 175.71744 C 103.02075 175.29084 103.6898 174.86029 104.35332 174.42501 C 105.01684 173.98974 105.67503 173.5502 106.32788 173.10623 C 106.98073 172.66226 107.62837 172.21377 108.27091 171.76109 C 108.91346 171.30842 109.55085 170.85151 110.18346 170.39012 C 110.81606 169.92872 111.44404 169.46292 112.06706 168.99279 C 112.69009 168.52265 113.30843 168.04799 113.92225 167.5691 C 114.53606 167.09021 115.14508 166.60672 115.75004 166.11906 C 116.355 165.6314 116.95553 165.13963 117.552 164.64318 C 118.14847 164.14673 118.74081 163.64568 119.32915 163.14043 C 119.91749 162.63518 120.50195 162.12539 121.08253 161.61132 C 121.66311 161.09725 122.23999 160.57877 122.81318 160.05586 C 123.38636 159.53296 123.95597 159.0058 124.52212 158.47405 C 125.08826 157.94229 125.65091 157.40598 126.21038 156.86536 C 126.76986 156.32474 127.32586 155.77982 127.87902 155.23032 C 128.43218 154.68082 128.98235 154.1268 129.52956 153.5684 C 130.07677 153.01001 130.62143 152.44744 131.16305 151.88014 C 131.70468 151.31283 132.2436 150.74071 132.78001 150.16448 C 133.31642 149.58824 133.85043 149.00764 134.38198 148.42247 C 134.91353 147.83729 135.44243 147.24772 135.96948 146.65358 C 137.02358 145.46531 138.06897 144.25889 139.10727 143.03468 C 140.14557 141.81047 141.17677 140.56855 142.20217 139.30829 C 143.22758 138.04803 144.24756 136.76983 145.26297 135.47338 C 146.27838 134.17694 147.28909 132.86219 148.29741 131.52944 C 149.30573 130.19669 150.3117 128.84564 151.31583 127.47646 C 152.31996 126.10728 153.32261 124.72018 154.32546 123.31444 C 154.69927 122.79046 155.07346 122.25084 155.44736 121.72177 C 153.47351 116.7453 150.37156 112.29186 145.5446 108.97371 C 136.81824 101.30715 125.18458 96.2858 120.05572 97.153243 C 114.38204 94.871198 108.27492 93.980122 101.83668 93.914681 z " />
    <ellipse
       style="opacity:1;fill:#ffffff;fill-opacity:1;stroke:#ffffff;stroke-width:0;stroke-opacity:1"
       id="path46784"
       cx="65.569031"
       cy="137.78731"
       rx="6.4645524"
       ry="6.6492538" />
    <path
       style="opacity:1;fill:#ffffff;fill-opacity:1;stroke:#ffffff;stroke-width:0;stroke-opacity:1"
       d="m 82.817953,106.46486 c -3.857747,2.41431 -10.664708,4.60333 -0.550065,8.08486 14.801066,-2.62906 27.732062,-1.00541 39.604702,3.02504 7.56594,-2.13106 0.64799,-5.36841 -1.10013,-8.2109 -12.6515,-3.91615 -25.303005,-5.84938 -37.954507,-2.899 z"
       id="path51932"
       sodipodi:nodetypes="ccccc" />
    <g
       id="g66189"
       transform="matrix(0.6681257,0,0.2668459,0.81469035,7.2963229,39.503995)">
      <path
         style="opacity:1;fill:#004c56;fill-opacity:1;stroke:#ffffff;stroke-width:0;stroke-opacity:1"
         d="m 185.69355,102.18537 c 12.25226,-6.828718 9.88862,-0.37025 12.1903,1.84702 l -1.10821,6.64925 c 8.93542,-1.73669 14.01067,0.92477 15.14552,4.06343 4.1479,9.15418 -3.34228,18.58446 -9.23507,19.57835 -8.73833,0.38642 -14.90123,-1.37334 -17.73134,-5.91044 -2.59657,-2.66433 -4.40698,-5.5907 -4.06343,-9.23507 z"
         id="path59250"
         sodipodi:nodetypes="cccccccc" />
      <path
         style="opacity:1;fill:#f0ffff;fill-opacity:1;stroke:#ffffff;stroke-width:0;stroke-opacity:1"
         d="m 197.2672,116.12647 c 3.24969,0.44301 5.13558,1.15991 6.46244,3.07185 0.0251,2.32169 -1.25767,3.36064 -3.44663,3.51069 -2.2073,-1.05269 -2.74718,-2.82375 -3.96978,-4.79585 0.0935,-2.19526 -1.47285,-1.81588 0.95397,-1.78669 z"
         id="path62936"
         sodipodi:nodetypes="ccccc" />
    </g>
    <rect
       style="opacity:1;fill:#004c56;fill-opacity:1;stroke:#ffffff;stroke-width:0;stroke-opacity:1"
       id="rect68421"
       width="8.0974283"
       height="5.2241478"
       x="154.89595"
       y="130.60368" />
  </g>
</svg>
